<mxfile host="app.diagrams.net" agent="Mozilla/5.0 (Windows NT 10.0; Win64; x64) AppleWebKit/537.36 (KHTML, like Gecko) Chrome/129.0.0.0 Safari/537.36" version="24.8.0">
  <diagram name="Page-1" id="fTfZaMciG06bFJsiuwcQ">
    <mxGraphModel dx="757" dy="548" grid="1" gridSize="10" guides="1" tooltips="1" connect="1" arrows="1" fold="1" page="1" pageScale="1" pageWidth="850" pageHeight="1100" math="0" shadow="0">
      <root>
        <mxCell id="0" />
        <mxCell id="1" parent="0" />
        <mxCell id="lWV6CRHEqDXHxuD6eHE_-103" value="FactPosts" style="shape=table;startSize=24;container=1;collapsible=0;childLayout=tableLayout;fixedRows=1;rowLines=1;fontStyle=1;align=center;resizeLast=1;" parent="1" vertex="1">
          <mxGeometry x="421" y="276" width="206" height="179" as="geometry" />
        </mxCell>
        <mxCell id="lWV6CRHEqDXHxuD6eHE_-104" style="shape=tableRow;horizontal=0;startSize=0;swimlaneHead=0;swimlaneBody=0;fillColor=none;collapsible=0;dropTarget=0;points=[[0,0.5],[1,0.5]];portConstraint=eastwest;top=0;left=0;right=0;bottom=0;" parent="lWV6CRHEqDXHxuD6eHE_-103" vertex="1">
          <mxGeometry y="24" width="206" height="22" as="geometry" />
        </mxCell>
        <mxCell id="8ehOqKbZKY1BmfsN4_bB-17" value="pk" style="shape=partialRectangle;connectable=0;fillColor=none;top=0;left=0;bottom=0;right=0;align=left;spacingLeft=2;overflow=hidden;fontSize=11;" vertex="1" parent="lWV6CRHEqDXHxuD6eHE_-104">
          <mxGeometry width="48" height="22" as="geometry">
            <mxRectangle width="48" height="22" as="alternateBounds" />
          </mxGeometry>
        </mxCell>
        <mxCell id="lWV6CRHEqDXHxuD6eHE_-105" value="int" style="shape=partialRectangle;connectable=0;fillColor=none;top=0;left=0;bottom=0;right=0;align=left;spacingLeft=2;overflow=hidden;fontSize=11;" parent="lWV6CRHEqDXHxuD6eHE_-104" vertex="1">
          <mxGeometry x="48" width="48" height="22" as="geometry">
            <mxRectangle width="48" height="22" as="alternateBounds" />
          </mxGeometry>
        </mxCell>
        <mxCell id="lWV6CRHEqDXHxuD6eHE_-106" value="post_id" style="shape=partialRectangle;connectable=0;fillColor=none;top=0;left=0;bottom=0;right=0;align=left;spacingLeft=2;overflow=hidden;fontSize=11;" parent="lWV6CRHEqDXHxuD6eHE_-104" vertex="1">
          <mxGeometry x="96" width="110" height="22" as="geometry">
            <mxRectangle width="110" height="22" as="alternateBounds" />
          </mxGeometry>
        </mxCell>
        <mxCell id="lWV6CRHEqDXHxuD6eHE_-107" style="shape=tableRow;horizontal=0;startSize=0;swimlaneHead=0;swimlaneBody=0;fillColor=none;collapsible=0;dropTarget=0;points=[[0,0.5],[1,0.5]];portConstraint=eastwest;top=0;left=0;right=0;bottom=0;" parent="lWV6CRHEqDXHxuD6eHE_-103" vertex="1">
          <mxGeometry y="46" width="206" height="22" as="geometry" />
        </mxCell>
        <mxCell id="8ehOqKbZKY1BmfsN4_bB-18" value="fk" style="shape=partialRectangle;connectable=0;fillColor=none;top=0;left=0;bottom=0;right=0;align=left;spacingLeft=2;overflow=hidden;fontSize=11;" vertex="1" parent="lWV6CRHEqDXHxuD6eHE_-107">
          <mxGeometry width="48" height="22" as="geometry">
            <mxRectangle width="48" height="22" as="alternateBounds" />
          </mxGeometry>
        </mxCell>
        <mxCell id="lWV6CRHEqDXHxuD6eHE_-108" value="int" style="shape=partialRectangle;connectable=0;fillColor=none;top=0;left=0;bottom=0;right=0;align=left;spacingLeft=2;overflow=hidden;fontSize=11;" parent="lWV6CRHEqDXHxuD6eHE_-107" vertex="1">
          <mxGeometry x="48" width="48" height="22" as="geometry">
            <mxRectangle width="48" height="22" as="alternateBounds" />
          </mxGeometry>
        </mxCell>
        <mxCell id="lWV6CRHEqDXHxuD6eHE_-109" value="user_id" style="shape=partialRectangle;connectable=0;fillColor=none;top=0;left=0;bottom=0;right=0;align=left;spacingLeft=2;overflow=hidden;fontSize=11;" parent="lWV6CRHEqDXHxuD6eHE_-107" vertex="1">
          <mxGeometry x="96" width="110" height="22" as="geometry">
            <mxRectangle width="110" height="22" as="alternateBounds" />
          </mxGeometry>
        </mxCell>
        <mxCell id="lWV6CRHEqDXHxuD6eHE_-110" style="shape=tableRow;horizontal=0;startSize=0;swimlaneHead=0;swimlaneBody=0;fillColor=none;collapsible=0;dropTarget=0;points=[[0,0.5],[1,0.5]];portConstraint=eastwest;top=0;left=0;right=0;bottom=0;" parent="lWV6CRHEqDXHxuD6eHE_-103" vertex="1">
          <mxGeometry y="68" width="206" height="22" as="geometry" />
        </mxCell>
        <mxCell id="8ehOqKbZKY1BmfsN4_bB-19" value="fk" style="shape=partialRectangle;connectable=0;fillColor=none;top=0;left=0;bottom=0;right=0;align=left;spacingLeft=2;overflow=hidden;fontSize=11;" vertex="1" parent="lWV6CRHEqDXHxuD6eHE_-110">
          <mxGeometry width="48" height="22" as="geometry">
            <mxRectangle width="48" height="22" as="alternateBounds" />
          </mxGeometry>
        </mxCell>
        <mxCell id="lWV6CRHEqDXHxuD6eHE_-111" value="int" style="shape=partialRectangle;connectable=0;fillColor=none;top=0;left=0;bottom=0;right=0;align=left;spacingLeft=2;overflow=hidden;fontSize=11;" parent="lWV6CRHEqDXHxuD6eHE_-110" vertex="1">
          <mxGeometry x="48" width="48" height="22" as="geometry">
            <mxRectangle width="48" height="22" as="alternateBounds" />
          </mxGeometry>
        </mxCell>
        <mxCell id="lWV6CRHEqDXHxuD6eHE_-112" value="subreddit_id" style="shape=partialRectangle;connectable=0;fillColor=none;top=0;left=0;bottom=0;right=0;align=left;spacingLeft=2;overflow=hidden;fontSize=11;" parent="lWV6CRHEqDXHxuD6eHE_-110" vertex="1">
          <mxGeometry x="96" width="110" height="22" as="geometry">
            <mxRectangle width="110" height="22" as="alternateBounds" />
          </mxGeometry>
        </mxCell>
        <mxCell id="lWV6CRHEqDXHxuD6eHE_-113" style="shape=tableRow;horizontal=0;startSize=0;swimlaneHead=0;swimlaneBody=0;fillColor=none;collapsible=0;dropTarget=0;points=[[0,0.5],[1,0.5]];portConstraint=eastwest;top=0;left=0;right=0;bottom=0;" parent="lWV6CRHEqDXHxuD6eHE_-103" vertex="1">
          <mxGeometry y="90" width="206" height="22" as="geometry" />
        </mxCell>
        <mxCell id="8ehOqKbZKY1BmfsN4_bB-20" style="shape=partialRectangle;connectable=0;fillColor=none;top=0;left=0;bottom=0;right=0;align=left;spacingLeft=2;overflow=hidden;fontSize=11;" vertex="1" parent="lWV6CRHEqDXHxuD6eHE_-113">
          <mxGeometry width="48" height="22" as="geometry">
            <mxRectangle width="48" height="22" as="alternateBounds" />
          </mxGeometry>
        </mxCell>
        <mxCell id="lWV6CRHEqDXHxuD6eHE_-114" value="datetime" style="shape=partialRectangle;connectable=0;fillColor=none;top=0;left=0;bottom=0;right=0;align=left;spacingLeft=2;overflow=hidden;fontSize=11;" parent="lWV6CRHEqDXHxuD6eHE_-113" vertex="1">
          <mxGeometry x="48" width="48" height="22" as="geometry">
            <mxRectangle width="48" height="22" as="alternateBounds" />
          </mxGeometry>
        </mxCell>
        <mxCell id="lWV6CRHEqDXHxuD6eHE_-115" value="created_at" style="shape=partialRectangle;connectable=0;fillColor=none;top=0;left=0;bottom=0;right=0;align=left;spacingLeft=2;overflow=hidden;fontSize=11;" parent="lWV6CRHEqDXHxuD6eHE_-113" vertex="1">
          <mxGeometry x="96" width="110" height="22" as="geometry">
            <mxRectangle width="110" height="22" as="alternateBounds" />
          </mxGeometry>
        </mxCell>
        <mxCell id="lWV6CRHEqDXHxuD6eHE_-116" style="shape=tableRow;horizontal=0;startSize=0;swimlaneHead=0;swimlaneBody=0;fillColor=none;collapsible=0;dropTarget=0;points=[[0,0.5],[1,0.5]];portConstraint=eastwest;top=0;left=0;right=0;bottom=0;" parent="lWV6CRHEqDXHxuD6eHE_-103" vertex="1">
          <mxGeometry y="112" width="206" height="22" as="geometry" />
        </mxCell>
        <mxCell id="8ehOqKbZKY1BmfsN4_bB-21" style="shape=partialRectangle;connectable=0;fillColor=none;top=0;left=0;bottom=0;right=0;align=left;spacingLeft=2;overflow=hidden;fontSize=11;" vertex="1" parent="lWV6CRHEqDXHxuD6eHE_-116">
          <mxGeometry width="48" height="22" as="geometry">
            <mxRectangle width="48" height="22" as="alternateBounds" />
          </mxGeometry>
        </mxCell>
        <mxCell id="lWV6CRHEqDXHxuD6eHE_-117" value="int" style="shape=partialRectangle;connectable=0;fillColor=none;top=0;left=0;bottom=0;right=0;align=left;spacingLeft=2;overflow=hidden;fontSize=11;" parent="lWV6CRHEqDXHxuD6eHE_-116" vertex="1">
          <mxGeometry x="48" width="48" height="22" as="geometry">
            <mxRectangle width="48" height="22" as="alternateBounds" />
          </mxGeometry>
        </mxCell>
        <mxCell id="lWV6CRHEqDXHxuD6eHE_-118" value="upvotes" style="shape=partialRectangle;connectable=0;fillColor=none;top=0;left=0;bottom=0;right=0;align=left;spacingLeft=2;overflow=hidden;fontSize=11;" parent="lWV6CRHEqDXHxuD6eHE_-116" vertex="1">
          <mxGeometry x="96" width="110" height="22" as="geometry">
            <mxRectangle width="110" height="22" as="alternateBounds" />
          </mxGeometry>
        </mxCell>
        <mxCell id="lWV6CRHEqDXHxuD6eHE_-119" style="shape=tableRow;horizontal=0;startSize=0;swimlaneHead=0;swimlaneBody=0;fillColor=none;collapsible=0;dropTarget=0;points=[[0,0.5],[1,0.5]];portConstraint=eastwest;top=0;left=0;right=0;bottom=0;" parent="lWV6CRHEqDXHxuD6eHE_-103" vertex="1">
          <mxGeometry y="134" width="206" height="22" as="geometry" />
        </mxCell>
        <mxCell id="8ehOqKbZKY1BmfsN4_bB-22" style="shape=partialRectangle;connectable=0;fillColor=none;top=0;left=0;bottom=0;right=0;align=left;spacingLeft=2;overflow=hidden;fontSize=11;" vertex="1" parent="lWV6CRHEqDXHxuD6eHE_-119">
          <mxGeometry width="48" height="22" as="geometry">
            <mxRectangle width="48" height="22" as="alternateBounds" />
          </mxGeometry>
        </mxCell>
        <mxCell id="lWV6CRHEqDXHxuD6eHE_-120" value="int" style="shape=partialRectangle;connectable=0;fillColor=none;top=0;left=0;bottom=0;right=0;align=left;spacingLeft=2;overflow=hidden;fontSize=11;" parent="lWV6CRHEqDXHxuD6eHE_-119" vertex="1">
          <mxGeometry x="48" width="48" height="22" as="geometry">
            <mxRectangle width="48" height="22" as="alternateBounds" />
          </mxGeometry>
        </mxCell>
        <mxCell id="lWV6CRHEqDXHxuD6eHE_-121" value="downvotes" style="shape=partialRectangle;connectable=0;fillColor=none;top=0;left=0;bottom=0;right=0;align=left;spacingLeft=2;overflow=hidden;fontSize=11;" parent="lWV6CRHEqDXHxuD6eHE_-119" vertex="1">
          <mxGeometry x="96" width="110" height="22" as="geometry">
            <mxRectangle width="110" height="22" as="alternateBounds" />
          </mxGeometry>
        </mxCell>
        <mxCell id="lWV6CRHEqDXHxuD6eHE_-122" style="shape=tableRow;horizontal=0;startSize=0;swimlaneHead=0;swimlaneBody=0;fillColor=none;collapsible=0;dropTarget=0;points=[[0,0.5],[1,0.5]];portConstraint=eastwest;top=0;left=0;right=0;bottom=0;" parent="lWV6CRHEqDXHxuD6eHE_-103" vertex="1">
          <mxGeometry y="156" width="206" height="22" as="geometry" />
        </mxCell>
        <mxCell id="8ehOqKbZKY1BmfsN4_bB-23" style="shape=partialRectangle;connectable=0;fillColor=none;top=0;left=0;bottom=0;right=0;align=left;spacingLeft=2;overflow=hidden;fontSize=11;" vertex="1" parent="lWV6CRHEqDXHxuD6eHE_-122">
          <mxGeometry width="48" height="22" as="geometry">
            <mxRectangle width="48" height="22" as="alternateBounds" />
          </mxGeometry>
        </mxCell>
        <mxCell id="lWV6CRHEqDXHxuD6eHE_-123" value="int" style="shape=partialRectangle;connectable=0;fillColor=none;top=0;left=0;bottom=0;right=0;align=left;spacingLeft=2;overflow=hidden;fontSize=11;" parent="lWV6CRHEqDXHxuD6eHE_-122" vertex="1">
          <mxGeometry x="48" width="48" height="22" as="geometry">
            <mxRectangle width="48" height="22" as="alternateBounds" />
          </mxGeometry>
        </mxCell>
        <mxCell id="lWV6CRHEqDXHxuD6eHE_-124" value="comment_count" style="shape=partialRectangle;connectable=0;fillColor=none;top=0;left=0;bottom=0;right=0;align=left;spacingLeft=2;overflow=hidden;fontSize=11;" parent="lWV6CRHEqDXHxuD6eHE_-122" vertex="1">
          <mxGeometry x="96" width="110" height="22" as="geometry">
            <mxRectangle width="110" height="22" as="alternateBounds" />
          </mxGeometry>
        </mxCell>
        <mxCell id="lWV6CRHEqDXHxuD6eHE_-125" value="DimUsers" style="shape=table;startSize=25;container=1;collapsible=0;childLayout=tableLayout;fixedRows=1;rowLines=1;fontStyle=1;align=center;resizeLast=1;" parent="1" vertex="1">
          <mxGeometry x="99" y="553" width="179" height="157" as="geometry" />
        </mxCell>
        <mxCell id="lWV6CRHEqDXHxuD6eHE_-126" style="shape=tableRow;horizontal=0;startSize=0;swimlaneHead=0;swimlaneBody=0;fillColor=none;collapsible=0;dropTarget=0;points=[[0,0.5],[1,0.5]];portConstraint=eastwest;top=0;left=0;right=0;bottom=0;" parent="lWV6CRHEqDXHxuD6eHE_-125" vertex="1">
          <mxGeometry y="25" width="179" height="22" as="geometry" />
        </mxCell>
        <mxCell id="8ehOqKbZKY1BmfsN4_bB-40" value="pk" style="shape=partialRectangle;connectable=0;fillColor=none;top=0;left=0;bottom=0;right=0;align=left;spacingLeft=2;overflow=hidden;fontSize=11;" vertex="1" parent="lWV6CRHEqDXHxuD6eHE_-126">
          <mxGeometry width="36" height="22" as="geometry">
            <mxRectangle width="36" height="22" as="alternateBounds" />
          </mxGeometry>
        </mxCell>
        <mxCell id="lWV6CRHEqDXHxuD6eHE_-127" value="int" style="shape=partialRectangle;connectable=0;fillColor=none;top=0;left=0;bottom=0;right=0;align=left;spacingLeft=2;overflow=hidden;fontSize=11;" parent="lWV6CRHEqDXHxuD6eHE_-126" vertex="1">
          <mxGeometry x="36" width="36" height="22" as="geometry">
            <mxRectangle width="36" height="22" as="alternateBounds" />
          </mxGeometry>
        </mxCell>
        <mxCell id="lWV6CRHEqDXHxuD6eHE_-128" value="user_id" style="shape=partialRectangle;connectable=0;fillColor=none;top=0;left=0;bottom=0;right=0;align=left;spacingLeft=2;overflow=hidden;fontSize=11;" parent="lWV6CRHEqDXHxuD6eHE_-126" vertex="1">
          <mxGeometry x="72" width="107" height="22" as="geometry">
            <mxRectangle width="107" height="22" as="alternateBounds" />
          </mxGeometry>
        </mxCell>
        <mxCell id="lWV6CRHEqDXHxuD6eHE_-129" style="shape=tableRow;horizontal=0;startSize=0;swimlaneHead=0;swimlaneBody=0;fillColor=none;collapsible=0;dropTarget=0;points=[[0,0.5],[1,0.5]];portConstraint=eastwest;top=0;left=0;right=0;bottom=0;" parent="lWV6CRHEqDXHxuD6eHE_-125" vertex="1">
          <mxGeometry y="47" width="179" height="22" as="geometry" />
        </mxCell>
        <mxCell id="8ehOqKbZKY1BmfsN4_bB-41" style="shape=partialRectangle;connectable=0;fillColor=none;top=0;left=0;bottom=0;right=0;align=left;spacingLeft=2;overflow=hidden;fontSize=11;" vertex="1" parent="lWV6CRHEqDXHxuD6eHE_-129">
          <mxGeometry width="36" height="22" as="geometry">
            <mxRectangle width="36" height="22" as="alternateBounds" />
          </mxGeometry>
        </mxCell>
        <mxCell id="lWV6CRHEqDXHxuD6eHE_-130" value="string" style="shape=partialRectangle;connectable=0;fillColor=none;top=0;left=0;bottom=0;right=0;align=left;spacingLeft=2;overflow=hidden;fontSize=11;" parent="lWV6CRHEqDXHxuD6eHE_-129" vertex="1">
          <mxGeometry x="36" width="36" height="22" as="geometry">
            <mxRectangle width="36" height="22" as="alternateBounds" />
          </mxGeometry>
        </mxCell>
        <mxCell id="lWV6CRHEqDXHxuD6eHE_-131" value="username" style="shape=partialRectangle;connectable=0;fillColor=none;top=0;left=0;bottom=0;right=0;align=left;spacingLeft=2;overflow=hidden;fontSize=11;" parent="lWV6CRHEqDXHxuD6eHE_-129" vertex="1">
          <mxGeometry x="72" width="107" height="22" as="geometry">
            <mxRectangle width="107" height="22" as="alternateBounds" />
          </mxGeometry>
        </mxCell>
        <mxCell id="lWV6CRHEqDXHxuD6eHE_-132" style="shape=tableRow;horizontal=0;startSize=0;swimlaneHead=0;swimlaneBody=0;fillColor=none;collapsible=0;dropTarget=0;points=[[0,0.5],[1,0.5]];portConstraint=eastwest;top=0;left=0;right=0;bottom=0;" parent="lWV6CRHEqDXHxuD6eHE_-125" vertex="1">
          <mxGeometry y="69" width="179" height="22" as="geometry" />
        </mxCell>
        <mxCell id="8ehOqKbZKY1BmfsN4_bB-42" style="shape=partialRectangle;connectable=0;fillColor=none;top=0;left=0;bottom=0;right=0;align=left;spacingLeft=2;overflow=hidden;fontSize=11;" vertex="1" parent="lWV6CRHEqDXHxuD6eHE_-132">
          <mxGeometry width="36" height="22" as="geometry">
            <mxRectangle width="36" height="22" as="alternateBounds" />
          </mxGeometry>
        </mxCell>
        <mxCell id="lWV6CRHEqDXHxuD6eHE_-133" value="string" style="shape=partialRectangle;connectable=0;fillColor=none;top=0;left=0;bottom=0;right=0;align=left;spacingLeft=2;overflow=hidden;fontSize=11;" parent="lWV6CRHEqDXHxuD6eHE_-132" vertex="1">
          <mxGeometry x="36" width="36" height="22" as="geometry">
            <mxRectangle width="36" height="22" as="alternateBounds" />
          </mxGeometry>
        </mxCell>
        <mxCell id="lWV6CRHEqDXHxuD6eHE_-134" value="email" style="shape=partialRectangle;connectable=0;fillColor=none;top=0;left=0;bottom=0;right=0;align=left;spacingLeft=2;overflow=hidden;fontSize=11;" parent="lWV6CRHEqDXHxuD6eHE_-132" vertex="1">
          <mxGeometry x="72" width="107" height="22" as="geometry">
            <mxRectangle width="107" height="22" as="alternateBounds" />
          </mxGeometry>
        </mxCell>
        <mxCell id="lWV6CRHEqDXHxuD6eHE_-135" style="shape=tableRow;horizontal=0;startSize=0;swimlaneHead=0;swimlaneBody=0;fillColor=none;collapsible=0;dropTarget=0;points=[[0,0.5],[1,0.5]];portConstraint=eastwest;top=0;left=0;right=0;bottom=0;" parent="lWV6CRHEqDXHxuD6eHE_-125" vertex="1">
          <mxGeometry y="91" width="179" height="22" as="geometry" />
        </mxCell>
        <mxCell id="8ehOqKbZKY1BmfsN4_bB-43" style="shape=partialRectangle;connectable=0;fillColor=none;top=0;left=0;bottom=0;right=0;align=left;spacingLeft=2;overflow=hidden;fontSize=11;" vertex="1" parent="lWV6CRHEqDXHxuD6eHE_-135">
          <mxGeometry width="36" height="22" as="geometry">
            <mxRectangle width="36" height="22" as="alternateBounds" />
          </mxGeometry>
        </mxCell>
        <mxCell id="lWV6CRHEqDXHxuD6eHE_-136" value="date" style="shape=partialRectangle;connectable=0;fillColor=none;top=0;left=0;bottom=0;right=0;align=left;spacingLeft=2;overflow=hidden;fontSize=11;" parent="lWV6CRHEqDXHxuD6eHE_-135" vertex="1">
          <mxGeometry x="36" width="36" height="22" as="geometry">
            <mxRectangle width="36" height="22" as="alternateBounds" />
          </mxGeometry>
        </mxCell>
        <mxCell id="lWV6CRHEqDXHxuD6eHE_-137" value="join_date" style="shape=partialRectangle;connectable=0;fillColor=none;top=0;left=0;bottom=0;right=0;align=left;spacingLeft=2;overflow=hidden;fontSize=11;" parent="lWV6CRHEqDXHxuD6eHE_-135" vertex="1">
          <mxGeometry x="72" width="107" height="22" as="geometry">
            <mxRectangle width="107" height="22" as="alternateBounds" />
          </mxGeometry>
        </mxCell>
        <mxCell id="lWV6CRHEqDXHxuD6eHE_-138" style="shape=tableRow;horizontal=0;startSize=0;swimlaneHead=0;swimlaneBody=0;fillColor=none;collapsible=0;dropTarget=0;points=[[0,0.5],[1,0.5]];portConstraint=eastwest;top=0;left=0;right=0;bottom=0;" parent="lWV6CRHEqDXHxuD6eHE_-125" vertex="1">
          <mxGeometry y="113" width="179" height="22" as="geometry" />
        </mxCell>
        <mxCell id="8ehOqKbZKY1BmfsN4_bB-44" style="shape=partialRectangle;connectable=0;fillColor=none;top=0;left=0;bottom=0;right=0;align=left;spacingLeft=2;overflow=hidden;fontSize=11;" vertex="1" parent="lWV6CRHEqDXHxuD6eHE_-138">
          <mxGeometry width="36" height="22" as="geometry">
            <mxRectangle width="36" height="22" as="alternateBounds" />
          </mxGeometry>
        </mxCell>
        <mxCell id="lWV6CRHEqDXHxuD6eHE_-139" value="int" style="shape=partialRectangle;connectable=0;fillColor=none;top=0;left=0;bottom=0;right=0;align=left;spacingLeft=2;overflow=hidden;fontSize=11;" parent="lWV6CRHEqDXHxuD6eHE_-138" vertex="1">
          <mxGeometry x="36" width="36" height="22" as="geometry">
            <mxRectangle width="36" height="22" as="alternateBounds" />
          </mxGeometry>
        </mxCell>
        <mxCell id="lWV6CRHEqDXHxuD6eHE_-140" value="post_count" style="shape=partialRectangle;connectable=0;fillColor=none;top=0;left=0;bottom=0;right=0;align=left;spacingLeft=2;overflow=hidden;fontSize=11;" parent="lWV6CRHEqDXHxuD6eHE_-138" vertex="1">
          <mxGeometry x="72" width="107" height="22" as="geometry">
            <mxRectangle width="107" height="22" as="alternateBounds" />
          </mxGeometry>
        </mxCell>
        <mxCell id="lWV6CRHEqDXHxuD6eHE_-141" style="shape=tableRow;horizontal=0;startSize=0;swimlaneHead=0;swimlaneBody=0;fillColor=none;collapsible=0;dropTarget=0;points=[[0,0.5],[1,0.5]];portConstraint=eastwest;top=0;left=0;right=0;bottom=0;" parent="lWV6CRHEqDXHxuD6eHE_-125" vertex="1">
          <mxGeometry y="135" width="179" height="22" as="geometry" />
        </mxCell>
        <mxCell id="8ehOqKbZKY1BmfsN4_bB-45" style="shape=partialRectangle;connectable=0;fillColor=none;top=0;left=0;bottom=0;right=0;align=left;spacingLeft=2;overflow=hidden;fontSize=11;" vertex="1" parent="lWV6CRHEqDXHxuD6eHE_-141">
          <mxGeometry width="36" height="22" as="geometry">
            <mxRectangle width="36" height="22" as="alternateBounds" />
          </mxGeometry>
        </mxCell>
        <mxCell id="lWV6CRHEqDXHxuD6eHE_-142" value="int" style="shape=partialRectangle;connectable=0;fillColor=none;top=0;left=0;bottom=0;right=0;align=left;spacingLeft=2;overflow=hidden;fontSize=11;" parent="lWV6CRHEqDXHxuD6eHE_-141" vertex="1">
          <mxGeometry x="36" width="36" height="22" as="geometry">
            <mxRectangle width="36" height="22" as="alternateBounds" />
          </mxGeometry>
        </mxCell>
        <mxCell id="lWV6CRHEqDXHxuD6eHE_-143" value="comment_count" style="shape=partialRectangle;connectable=0;fillColor=none;top=0;left=0;bottom=0;right=0;align=left;spacingLeft=2;overflow=hidden;fontSize=11;" parent="lWV6CRHEqDXHxuD6eHE_-141" vertex="1">
          <mxGeometry x="72" width="107" height="22" as="geometry">
            <mxRectangle width="107" height="22" as="alternateBounds" />
          </mxGeometry>
        </mxCell>
        <mxCell id="lWV6CRHEqDXHxuD6eHE_-144" value="DimSubreddits" style="shape=table;startSize=25;container=1;collapsible=0;childLayout=tableLayout;fixedRows=1;rowLines=1;fontStyle=1;align=center;resizeLast=1;" parent="1" vertex="1">
          <mxGeometry x="453" y="575" width="183" height="113" as="geometry" />
        </mxCell>
        <mxCell id="lWV6CRHEqDXHxuD6eHE_-145" style="shape=tableRow;horizontal=0;startSize=0;swimlaneHead=0;swimlaneBody=0;fillColor=none;collapsible=0;dropTarget=0;points=[[0,0.5],[1,0.5]];portConstraint=eastwest;top=0;left=0;right=0;bottom=0;" parent="lWV6CRHEqDXHxuD6eHE_-144" vertex="1">
          <mxGeometry y="25" width="183" height="22" as="geometry" />
        </mxCell>
        <mxCell id="8ehOqKbZKY1BmfsN4_bB-46" value="pk" style="shape=partialRectangle;connectable=0;fillColor=none;top=0;left=0;bottom=0;right=0;align=left;spacingLeft=2;overflow=hidden;fontSize=11;" vertex="1" parent="lWV6CRHEqDXHxuD6eHE_-145">
          <mxGeometry width="36" height="22" as="geometry">
            <mxRectangle width="36" height="22" as="alternateBounds" />
          </mxGeometry>
        </mxCell>
        <mxCell id="lWV6CRHEqDXHxuD6eHE_-146" value="int" style="shape=partialRectangle;connectable=0;fillColor=none;top=0;left=0;bottom=0;right=0;align=left;spacingLeft=2;overflow=hidden;fontSize=11;" parent="lWV6CRHEqDXHxuD6eHE_-145" vertex="1">
          <mxGeometry x="36" width="36" height="22" as="geometry">
            <mxRectangle width="36" height="22" as="alternateBounds" />
          </mxGeometry>
        </mxCell>
        <mxCell id="lWV6CRHEqDXHxuD6eHE_-147" value="subreddit_id" style="shape=partialRectangle;connectable=0;fillColor=none;top=0;left=0;bottom=0;right=0;align=left;spacingLeft=2;overflow=hidden;fontSize=11;" parent="lWV6CRHEqDXHxuD6eHE_-145" vertex="1">
          <mxGeometry x="72" width="111" height="22" as="geometry">
            <mxRectangle width="111" height="22" as="alternateBounds" />
          </mxGeometry>
        </mxCell>
        <mxCell id="lWV6CRHEqDXHxuD6eHE_-148" style="shape=tableRow;horizontal=0;startSize=0;swimlaneHead=0;swimlaneBody=0;fillColor=none;collapsible=0;dropTarget=0;points=[[0,0.5],[1,0.5]];portConstraint=eastwest;top=0;left=0;right=0;bottom=0;" parent="lWV6CRHEqDXHxuD6eHE_-144" vertex="1">
          <mxGeometry y="47" width="183" height="22" as="geometry" />
        </mxCell>
        <mxCell id="8ehOqKbZKY1BmfsN4_bB-47" style="shape=partialRectangle;connectable=0;fillColor=none;top=0;left=0;bottom=0;right=0;align=left;spacingLeft=2;overflow=hidden;fontSize=11;" vertex="1" parent="lWV6CRHEqDXHxuD6eHE_-148">
          <mxGeometry width="36" height="22" as="geometry">
            <mxRectangle width="36" height="22" as="alternateBounds" />
          </mxGeometry>
        </mxCell>
        <mxCell id="lWV6CRHEqDXHxuD6eHE_-149" value="string" style="shape=partialRectangle;connectable=0;fillColor=none;top=0;left=0;bottom=0;right=0;align=left;spacingLeft=2;overflow=hidden;fontSize=11;" parent="lWV6CRHEqDXHxuD6eHE_-148" vertex="1">
          <mxGeometry x="36" width="36" height="22" as="geometry">
            <mxRectangle width="36" height="22" as="alternateBounds" />
          </mxGeometry>
        </mxCell>
        <mxCell id="lWV6CRHEqDXHxuD6eHE_-150" value="name" style="shape=partialRectangle;connectable=0;fillColor=none;top=0;left=0;bottom=0;right=0;align=left;spacingLeft=2;overflow=hidden;fontSize=11;" parent="lWV6CRHEqDXHxuD6eHE_-148" vertex="1">
          <mxGeometry x="72" width="111" height="22" as="geometry">
            <mxRectangle width="111" height="22" as="alternateBounds" />
          </mxGeometry>
        </mxCell>
        <mxCell id="lWV6CRHEqDXHxuD6eHE_-151" style="shape=tableRow;horizontal=0;startSize=0;swimlaneHead=0;swimlaneBody=0;fillColor=none;collapsible=0;dropTarget=0;points=[[0,0.5],[1,0.5]];portConstraint=eastwest;top=0;left=0;right=0;bottom=0;" parent="lWV6CRHEqDXHxuD6eHE_-144" vertex="1">
          <mxGeometry y="69" width="183" height="22" as="geometry" />
        </mxCell>
        <mxCell id="8ehOqKbZKY1BmfsN4_bB-48" style="shape=partialRectangle;connectable=0;fillColor=none;top=0;left=0;bottom=0;right=0;align=left;spacingLeft=2;overflow=hidden;fontSize=11;" vertex="1" parent="lWV6CRHEqDXHxuD6eHE_-151">
          <mxGeometry width="36" height="22" as="geometry">
            <mxRectangle width="36" height="22" as="alternateBounds" />
          </mxGeometry>
        </mxCell>
        <mxCell id="lWV6CRHEqDXHxuD6eHE_-152" value="string" style="shape=partialRectangle;connectable=0;fillColor=none;top=0;left=0;bottom=0;right=0;align=left;spacingLeft=2;overflow=hidden;fontSize=11;" parent="lWV6CRHEqDXHxuD6eHE_-151" vertex="1">
          <mxGeometry x="36" width="36" height="22" as="geometry">
            <mxRectangle width="36" height="22" as="alternateBounds" />
          </mxGeometry>
        </mxCell>
        <mxCell id="lWV6CRHEqDXHxuD6eHE_-153" value="description" style="shape=partialRectangle;connectable=0;fillColor=none;top=0;left=0;bottom=0;right=0;align=left;spacingLeft=2;overflow=hidden;fontSize=11;" parent="lWV6CRHEqDXHxuD6eHE_-151" vertex="1">
          <mxGeometry x="72" width="111" height="22" as="geometry">
            <mxRectangle width="111" height="22" as="alternateBounds" />
          </mxGeometry>
        </mxCell>
        <mxCell id="lWV6CRHEqDXHxuD6eHE_-154" style="shape=tableRow;horizontal=0;startSize=0;swimlaneHead=0;swimlaneBody=0;fillColor=none;collapsible=0;dropTarget=0;points=[[0,0.5],[1,0.5]];portConstraint=eastwest;top=0;left=0;right=0;bottom=0;" parent="lWV6CRHEqDXHxuD6eHE_-144" vertex="1">
          <mxGeometry y="91" width="183" height="22" as="geometry" />
        </mxCell>
        <mxCell id="8ehOqKbZKY1BmfsN4_bB-49" style="shape=partialRectangle;connectable=0;fillColor=none;top=0;left=0;bottom=0;right=0;align=left;spacingLeft=2;overflow=hidden;fontSize=11;" vertex="1" parent="lWV6CRHEqDXHxuD6eHE_-154">
          <mxGeometry width="36" height="22" as="geometry">
            <mxRectangle width="36" height="22" as="alternateBounds" />
          </mxGeometry>
        </mxCell>
        <mxCell id="lWV6CRHEqDXHxuD6eHE_-155" value="int" style="shape=partialRectangle;connectable=0;fillColor=none;top=0;left=0;bottom=0;right=0;align=left;spacingLeft=2;overflow=hidden;fontSize=11;" parent="lWV6CRHEqDXHxuD6eHE_-154" vertex="1">
          <mxGeometry x="36" width="36" height="22" as="geometry">
            <mxRectangle width="36" height="22" as="alternateBounds" />
          </mxGeometry>
        </mxCell>
        <mxCell id="lWV6CRHEqDXHxuD6eHE_-156" value="subscriber_count" style="shape=partialRectangle;connectable=0;fillColor=none;top=0;left=0;bottom=0;right=0;align=left;spacingLeft=2;overflow=hidden;fontSize=11;" parent="lWV6CRHEqDXHxuD6eHE_-154" vertex="1">
          <mxGeometry x="72" width="111" height="22" as="geometry">
            <mxRectangle width="111" height="22" as="alternateBounds" />
          </mxGeometry>
        </mxCell>
        <mxCell id="lWV6CRHEqDXHxuD6eHE_-157" value="FactComments" style="shape=table;startSize=25;container=1;collapsible=0;childLayout=tableLayout;fixedRows=1;rowLines=1;fontStyle=1;align=center;resizeLast=1;" parent="1" vertex="1">
          <mxGeometry x="309" y="31" width="188" height="135" as="geometry" />
        </mxCell>
        <mxCell id="lWV6CRHEqDXHxuD6eHE_-158" style="shape=tableRow;horizontal=0;startSize=0;swimlaneHead=0;swimlaneBody=0;fillColor=none;collapsible=0;dropTarget=0;points=[[0,0.5],[1,0.5]];portConstraint=eastwest;top=0;left=0;right=0;bottom=0;" parent="lWV6CRHEqDXHxuD6eHE_-157" vertex="1">
          <mxGeometry y="25" width="188" height="22" as="geometry" />
        </mxCell>
        <mxCell id="8ehOqKbZKY1BmfsN4_bB-24" value="pk" style="shape=partialRectangle;connectable=0;fillColor=none;top=0;left=0;bottom=0;right=0;align=left;spacingLeft=2;overflow=hidden;fontSize=11;" vertex="1" parent="lWV6CRHEqDXHxuD6eHE_-158">
          <mxGeometry width="48" height="22" as="geometry">
            <mxRectangle width="48" height="22" as="alternateBounds" />
          </mxGeometry>
        </mxCell>
        <mxCell id="lWV6CRHEqDXHxuD6eHE_-159" value="int" style="shape=partialRectangle;connectable=0;fillColor=none;top=0;left=0;bottom=0;right=0;align=left;spacingLeft=2;overflow=hidden;fontSize=11;" parent="lWV6CRHEqDXHxuD6eHE_-158" vertex="1">
          <mxGeometry x="48" width="48" height="22" as="geometry">
            <mxRectangle width="48" height="22" as="alternateBounds" />
          </mxGeometry>
        </mxCell>
        <mxCell id="lWV6CRHEqDXHxuD6eHE_-160" value="comment_id" style="shape=partialRectangle;connectable=0;fillColor=none;top=0;left=0;bottom=0;right=0;align=left;spacingLeft=2;overflow=hidden;fontSize=11;" parent="lWV6CRHEqDXHxuD6eHE_-158" vertex="1">
          <mxGeometry x="96" width="92" height="22" as="geometry">
            <mxRectangle width="92" height="22" as="alternateBounds" />
          </mxGeometry>
        </mxCell>
        <mxCell id="lWV6CRHEqDXHxuD6eHE_-161" style="shape=tableRow;horizontal=0;startSize=0;swimlaneHead=0;swimlaneBody=0;fillColor=none;collapsible=0;dropTarget=0;points=[[0,0.5],[1,0.5]];portConstraint=eastwest;top=0;left=0;right=0;bottom=0;" parent="lWV6CRHEqDXHxuD6eHE_-157" vertex="1">
          <mxGeometry y="47" width="188" height="22" as="geometry" />
        </mxCell>
        <mxCell id="8ehOqKbZKY1BmfsN4_bB-25" value="fk" style="shape=partialRectangle;connectable=0;fillColor=none;top=0;left=0;bottom=0;right=0;align=left;spacingLeft=2;overflow=hidden;fontSize=11;" vertex="1" parent="lWV6CRHEqDXHxuD6eHE_-161">
          <mxGeometry width="48" height="22" as="geometry">
            <mxRectangle width="48" height="22" as="alternateBounds" />
          </mxGeometry>
        </mxCell>
        <mxCell id="lWV6CRHEqDXHxuD6eHE_-162" value="int" style="shape=partialRectangle;connectable=0;fillColor=none;top=0;left=0;bottom=0;right=0;align=left;spacingLeft=2;overflow=hidden;fontSize=11;" parent="lWV6CRHEqDXHxuD6eHE_-161" vertex="1">
          <mxGeometry x="48" width="48" height="22" as="geometry">
            <mxRectangle width="48" height="22" as="alternateBounds" />
          </mxGeometry>
        </mxCell>
        <mxCell id="lWV6CRHEqDXHxuD6eHE_-163" value="post_id" style="shape=partialRectangle;connectable=0;fillColor=none;top=0;left=0;bottom=0;right=0;align=left;spacingLeft=2;overflow=hidden;fontSize=11;" parent="lWV6CRHEqDXHxuD6eHE_-161" vertex="1">
          <mxGeometry x="96" width="92" height="22" as="geometry">
            <mxRectangle width="92" height="22" as="alternateBounds" />
          </mxGeometry>
        </mxCell>
        <mxCell id="lWV6CRHEqDXHxuD6eHE_-164" style="shape=tableRow;horizontal=0;startSize=0;swimlaneHead=0;swimlaneBody=0;fillColor=none;collapsible=0;dropTarget=0;points=[[0,0.5],[1,0.5]];portConstraint=eastwest;top=0;left=0;right=0;bottom=0;" parent="lWV6CRHEqDXHxuD6eHE_-157" vertex="1">
          <mxGeometry y="69" width="188" height="22" as="geometry" />
        </mxCell>
        <mxCell id="8ehOqKbZKY1BmfsN4_bB-26" value="fk" style="shape=partialRectangle;connectable=0;fillColor=none;top=0;left=0;bottom=0;right=0;align=left;spacingLeft=2;overflow=hidden;fontSize=11;" vertex="1" parent="lWV6CRHEqDXHxuD6eHE_-164">
          <mxGeometry width="48" height="22" as="geometry">
            <mxRectangle width="48" height="22" as="alternateBounds" />
          </mxGeometry>
        </mxCell>
        <mxCell id="lWV6CRHEqDXHxuD6eHE_-165" value="int" style="shape=partialRectangle;connectable=0;fillColor=none;top=0;left=0;bottom=0;right=0;align=left;spacingLeft=2;overflow=hidden;fontSize=11;" parent="lWV6CRHEqDXHxuD6eHE_-164" vertex="1">
          <mxGeometry x="48" width="48" height="22" as="geometry">
            <mxRectangle width="48" height="22" as="alternateBounds" />
          </mxGeometry>
        </mxCell>
        <mxCell id="lWV6CRHEqDXHxuD6eHE_-166" value="user_id" style="shape=partialRectangle;connectable=0;fillColor=none;top=0;left=0;bottom=0;right=0;align=left;spacingLeft=2;overflow=hidden;fontSize=11;" parent="lWV6CRHEqDXHxuD6eHE_-164" vertex="1">
          <mxGeometry x="96" width="92" height="22" as="geometry">
            <mxRectangle width="92" height="22" as="alternateBounds" />
          </mxGeometry>
        </mxCell>
        <mxCell id="lWV6CRHEqDXHxuD6eHE_-167" style="shape=tableRow;horizontal=0;startSize=0;swimlaneHead=0;swimlaneBody=0;fillColor=none;collapsible=0;dropTarget=0;points=[[0,0.5],[1,0.5]];portConstraint=eastwest;top=0;left=0;right=0;bottom=0;" parent="lWV6CRHEqDXHxuD6eHE_-157" vertex="1">
          <mxGeometry y="91" width="188" height="22" as="geometry" />
        </mxCell>
        <mxCell id="8ehOqKbZKY1BmfsN4_bB-27" style="shape=partialRectangle;connectable=0;fillColor=none;top=0;left=0;bottom=0;right=0;align=left;spacingLeft=2;overflow=hidden;fontSize=11;" vertex="1" parent="lWV6CRHEqDXHxuD6eHE_-167">
          <mxGeometry width="48" height="22" as="geometry">
            <mxRectangle width="48" height="22" as="alternateBounds" />
          </mxGeometry>
        </mxCell>
        <mxCell id="lWV6CRHEqDXHxuD6eHE_-168" value="datetime" style="shape=partialRectangle;connectable=0;fillColor=none;top=0;left=0;bottom=0;right=0;align=left;spacingLeft=2;overflow=hidden;fontSize=11;" parent="lWV6CRHEqDXHxuD6eHE_-167" vertex="1">
          <mxGeometry x="48" width="48" height="22" as="geometry">
            <mxRectangle width="48" height="22" as="alternateBounds" />
          </mxGeometry>
        </mxCell>
        <mxCell id="lWV6CRHEqDXHxuD6eHE_-169" value="created_at" style="shape=partialRectangle;connectable=0;fillColor=none;top=0;left=0;bottom=0;right=0;align=left;spacingLeft=2;overflow=hidden;fontSize=11;" parent="lWV6CRHEqDXHxuD6eHE_-167" vertex="1">
          <mxGeometry x="96" width="92" height="22" as="geometry">
            <mxRectangle width="92" height="22" as="alternateBounds" />
          </mxGeometry>
        </mxCell>
        <mxCell id="lWV6CRHEqDXHxuD6eHE_-170" style="shape=tableRow;horizontal=0;startSize=0;swimlaneHead=0;swimlaneBody=0;fillColor=none;collapsible=0;dropTarget=0;points=[[0,0.5],[1,0.5]];portConstraint=eastwest;top=0;left=0;right=0;bottom=0;" parent="lWV6CRHEqDXHxuD6eHE_-157" vertex="1">
          <mxGeometry y="113" width="188" height="22" as="geometry" />
        </mxCell>
        <mxCell id="8ehOqKbZKY1BmfsN4_bB-28" style="shape=partialRectangle;connectable=0;fillColor=none;top=0;left=0;bottom=0;right=0;align=left;spacingLeft=2;overflow=hidden;fontSize=11;" vertex="1" parent="lWV6CRHEqDXHxuD6eHE_-170">
          <mxGeometry width="48" height="22" as="geometry">
            <mxRectangle width="48" height="22" as="alternateBounds" />
          </mxGeometry>
        </mxCell>
        <mxCell id="lWV6CRHEqDXHxuD6eHE_-171" value="int" style="shape=partialRectangle;connectable=0;fillColor=none;top=0;left=0;bottom=0;right=0;align=left;spacingLeft=2;overflow=hidden;fontSize=11;" parent="lWV6CRHEqDXHxuD6eHE_-170" vertex="1">
          <mxGeometry x="48" width="48" height="22" as="geometry">
            <mxRectangle width="48" height="22" as="alternateBounds" />
          </mxGeometry>
        </mxCell>
        <mxCell id="lWV6CRHEqDXHxuD6eHE_-172" value="award_id" style="shape=partialRectangle;connectable=0;fillColor=none;top=0;left=0;bottom=0;right=0;align=left;spacingLeft=2;overflow=hidden;fontSize=11;" parent="lWV6CRHEqDXHxuD6eHE_-170" vertex="1">
          <mxGeometry x="96" width="92" height="22" as="geometry">
            <mxRectangle width="92" height="22" as="alternateBounds" />
          </mxGeometry>
        </mxCell>
        <mxCell id="lWV6CRHEqDXHxuD6eHE_-173" value="FactMessages" style="shape=table;startSize=25;container=1;collapsible=0;childLayout=tableLayout;fixedRows=1;rowLines=1;fontStyle=1;align=center;resizeLast=1;" parent="1" vertex="1">
          <mxGeometry x="136" y="298" width="184" height="133" as="geometry" />
        </mxCell>
        <mxCell id="lWV6CRHEqDXHxuD6eHE_-174" style="shape=tableRow;horizontal=0;startSize=0;swimlaneHead=0;swimlaneBody=0;fillColor=none;collapsible=0;dropTarget=0;points=[[0,0.5],[1,0.5]];portConstraint=eastwest;top=0;left=0;right=0;bottom=0;" parent="lWV6CRHEqDXHxuD6eHE_-173" vertex="1">
          <mxGeometry y="25" width="184" height="20" as="geometry" />
        </mxCell>
        <mxCell id="8ehOqKbZKY1BmfsN4_bB-12" value="pk" style="shape=partialRectangle;connectable=0;fillColor=none;top=0;left=0;bottom=0;right=0;align=left;spacingLeft=2;overflow=hidden;fontSize=11;" vertex="1" parent="lWV6CRHEqDXHxuD6eHE_-174">
          <mxGeometry width="48" height="20" as="geometry">
            <mxRectangle width="48" height="20" as="alternateBounds" />
          </mxGeometry>
        </mxCell>
        <mxCell id="lWV6CRHEqDXHxuD6eHE_-175" value="int" style="shape=partialRectangle;connectable=0;fillColor=none;top=0;left=0;bottom=0;right=0;align=left;spacingLeft=2;overflow=hidden;fontSize=11;" parent="lWV6CRHEqDXHxuD6eHE_-174" vertex="1">
          <mxGeometry x="48" width="48" height="20" as="geometry">
            <mxRectangle width="48" height="20" as="alternateBounds" />
          </mxGeometry>
        </mxCell>
        <mxCell id="lWV6CRHEqDXHxuD6eHE_-176" value="message_id" style="shape=partialRectangle;connectable=0;fillColor=none;top=0;left=0;bottom=0;right=0;align=left;spacingLeft=2;overflow=hidden;fontSize=11;" parent="lWV6CRHEqDXHxuD6eHE_-174" vertex="1">
          <mxGeometry x="96" width="88" height="20" as="geometry">
            <mxRectangle width="88" height="20" as="alternateBounds" />
          </mxGeometry>
        </mxCell>
        <mxCell id="lWV6CRHEqDXHxuD6eHE_-177" style="shape=tableRow;horizontal=0;startSize=0;swimlaneHead=0;swimlaneBody=0;fillColor=none;collapsible=0;dropTarget=0;points=[[0,0.5],[1,0.5]];portConstraint=eastwest;top=0;left=0;right=0;bottom=0;" parent="lWV6CRHEqDXHxuD6eHE_-173" vertex="1">
          <mxGeometry y="45" width="184" height="22" as="geometry" />
        </mxCell>
        <mxCell id="8ehOqKbZKY1BmfsN4_bB-13" value="fk" style="shape=partialRectangle;connectable=0;fillColor=none;top=0;left=0;bottom=0;right=0;align=left;spacingLeft=2;overflow=hidden;fontSize=11;" vertex="1" parent="lWV6CRHEqDXHxuD6eHE_-177">
          <mxGeometry width="48" height="22" as="geometry">
            <mxRectangle width="48" height="22" as="alternateBounds" />
          </mxGeometry>
        </mxCell>
        <mxCell id="lWV6CRHEqDXHxuD6eHE_-178" value="int" style="shape=partialRectangle;connectable=0;fillColor=none;top=0;left=0;bottom=0;right=0;align=left;spacingLeft=2;overflow=hidden;fontSize=11;" parent="lWV6CRHEqDXHxuD6eHE_-177" vertex="1">
          <mxGeometry x="48" width="48" height="22" as="geometry">
            <mxRectangle width="48" height="22" as="alternateBounds" />
          </mxGeometry>
        </mxCell>
        <mxCell id="lWV6CRHEqDXHxuD6eHE_-179" value="sender_id" style="shape=partialRectangle;connectable=0;fillColor=none;top=0;left=0;bottom=0;right=0;align=left;spacingLeft=2;overflow=hidden;fontSize=11;" parent="lWV6CRHEqDXHxuD6eHE_-177" vertex="1">
          <mxGeometry x="96" width="88" height="22" as="geometry">
            <mxRectangle width="88" height="22" as="alternateBounds" />
          </mxGeometry>
        </mxCell>
        <mxCell id="lWV6CRHEqDXHxuD6eHE_-180" style="shape=tableRow;horizontal=0;startSize=0;swimlaneHead=0;swimlaneBody=0;fillColor=none;collapsible=0;dropTarget=0;points=[[0,0.5],[1,0.5]];portConstraint=eastwest;top=0;left=0;right=0;bottom=0;" parent="lWV6CRHEqDXHxuD6eHE_-173" vertex="1">
          <mxGeometry y="67" width="184" height="22" as="geometry" />
        </mxCell>
        <mxCell id="8ehOqKbZKY1BmfsN4_bB-14" value="fk" style="shape=partialRectangle;connectable=0;fillColor=none;top=0;left=0;bottom=0;right=0;align=left;spacingLeft=2;overflow=hidden;fontSize=11;" vertex="1" parent="lWV6CRHEqDXHxuD6eHE_-180">
          <mxGeometry width="48" height="22" as="geometry">
            <mxRectangle width="48" height="22" as="alternateBounds" />
          </mxGeometry>
        </mxCell>
        <mxCell id="lWV6CRHEqDXHxuD6eHE_-181" value="int" style="shape=partialRectangle;connectable=0;fillColor=none;top=0;left=0;bottom=0;right=0;align=left;spacingLeft=2;overflow=hidden;fontSize=11;" parent="lWV6CRHEqDXHxuD6eHE_-180" vertex="1">
          <mxGeometry x="48" width="48" height="22" as="geometry">
            <mxRectangle width="48" height="22" as="alternateBounds" />
          </mxGeometry>
        </mxCell>
        <mxCell id="lWV6CRHEqDXHxuD6eHE_-182" value="receiver_id" style="shape=partialRectangle;connectable=0;fillColor=none;top=0;left=0;bottom=0;right=0;align=left;spacingLeft=2;overflow=hidden;fontSize=11;" parent="lWV6CRHEqDXHxuD6eHE_-180" vertex="1">
          <mxGeometry x="96" width="88" height="22" as="geometry">
            <mxRectangle width="88" height="22" as="alternateBounds" />
          </mxGeometry>
        </mxCell>
        <mxCell id="lWV6CRHEqDXHxuD6eHE_-183" style="shape=tableRow;horizontal=0;startSize=0;swimlaneHead=0;swimlaneBody=0;fillColor=none;collapsible=0;dropTarget=0;points=[[0,0.5],[1,0.5]];portConstraint=eastwest;top=0;left=0;right=0;bottom=0;" parent="lWV6CRHEqDXHxuD6eHE_-173" vertex="1">
          <mxGeometry y="89" width="184" height="22" as="geometry" />
        </mxCell>
        <mxCell id="8ehOqKbZKY1BmfsN4_bB-15" style="shape=partialRectangle;connectable=0;fillColor=none;top=0;left=0;bottom=0;right=0;align=left;spacingLeft=2;overflow=hidden;fontSize=11;" vertex="1" parent="lWV6CRHEqDXHxuD6eHE_-183">
          <mxGeometry width="48" height="22" as="geometry">
            <mxRectangle width="48" height="22" as="alternateBounds" />
          </mxGeometry>
        </mxCell>
        <mxCell id="lWV6CRHEqDXHxuD6eHE_-184" value="datetime" style="shape=partialRectangle;connectable=0;fillColor=none;top=0;left=0;bottom=0;right=0;align=left;spacingLeft=2;overflow=hidden;fontSize=11;" parent="lWV6CRHEqDXHxuD6eHE_-183" vertex="1">
          <mxGeometry x="48" width="48" height="22" as="geometry">
            <mxRectangle width="48" height="22" as="alternateBounds" />
          </mxGeometry>
        </mxCell>
        <mxCell id="lWV6CRHEqDXHxuD6eHE_-185" value="sent_at" style="shape=partialRectangle;connectable=0;fillColor=none;top=0;left=0;bottom=0;right=0;align=left;spacingLeft=2;overflow=hidden;fontSize=11;" parent="lWV6CRHEqDXHxuD6eHE_-183" vertex="1">
          <mxGeometry x="96" width="88" height="22" as="geometry">
            <mxRectangle width="88" height="22" as="alternateBounds" />
          </mxGeometry>
        </mxCell>
        <mxCell id="lWV6CRHEqDXHxuD6eHE_-186" style="shape=tableRow;horizontal=0;startSize=0;swimlaneHead=0;swimlaneBody=0;fillColor=none;collapsible=0;dropTarget=0;points=[[0,0.5],[1,0.5]];portConstraint=eastwest;top=0;left=0;right=0;bottom=0;" parent="lWV6CRHEqDXHxuD6eHE_-173" vertex="1">
          <mxGeometry y="111" width="184" height="22" as="geometry" />
        </mxCell>
        <mxCell id="8ehOqKbZKY1BmfsN4_bB-16" style="shape=partialRectangle;connectable=0;fillColor=none;top=0;left=0;bottom=0;right=0;align=left;spacingLeft=2;overflow=hidden;fontSize=11;" vertex="1" parent="lWV6CRHEqDXHxuD6eHE_-186">
          <mxGeometry width="48" height="22" as="geometry">
            <mxRectangle width="48" height="22" as="alternateBounds" />
          </mxGeometry>
        </mxCell>
        <mxCell id="lWV6CRHEqDXHxuD6eHE_-187" value="boolean" style="shape=partialRectangle;connectable=0;fillColor=none;top=0;left=0;bottom=0;right=0;align=left;spacingLeft=2;overflow=hidden;fontSize=11;" parent="lWV6CRHEqDXHxuD6eHE_-186" vertex="1">
          <mxGeometry x="48" width="48" height="22" as="geometry">
            <mxRectangle width="48" height="22" as="alternateBounds" />
          </mxGeometry>
        </mxCell>
        <mxCell id="lWV6CRHEqDXHxuD6eHE_-188" value="is_read" style="shape=partialRectangle;connectable=0;fillColor=none;top=0;left=0;bottom=0;right=0;align=left;spacingLeft=2;overflow=hidden;fontSize=11;" parent="lWV6CRHEqDXHxuD6eHE_-186" vertex="1">
          <mxGeometry x="96" width="88" height="22" as="geometry">
            <mxRectangle width="88" height="22" as="alternateBounds" />
          </mxGeometry>
        </mxCell>
        <mxCell id="lWV6CRHEqDXHxuD6eHE_-189" value="DimAwards" style="shape=table;startSize=25;container=1;collapsible=0;childLayout=tableLayout;fixedRows=1;rowLines=1;fontStyle=1;align=center;resizeLast=1;" parent="1" vertex="1">
          <mxGeometry x="700" y="575" width="155" height="113" as="geometry" />
        </mxCell>
        <mxCell id="lWV6CRHEqDXHxuD6eHE_-190" style="shape=tableRow;horizontal=0;startSize=0;swimlaneHead=0;swimlaneBody=0;fillColor=none;collapsible=0;dropTarget=0;points=[[0,0.5],[1,0.5]];portConstraint=eastwest;top=0;left=0;right=0;bottom=0;" parent="lWV6CRHEqDXHxuD6eHE_-189" vertex="1">
          <mxGeometry y="25" width="155" height="22" as="geometry" />
        </mxCell>
        <mxCell id="8ehOqKbZKY1BmfsN4_bB-50" value="pk" style="shape=partialRectangle;connectable=0;fillColor=none;top=0;left=0;bottom=0;right=0;align=left;spacingLeft=2;overflow=hidden;fontSize=11;" vertex="1" parent="lWV6CRHEqDXHxuD6eHE_-190">
          <mxGeometry width="36" height="22" as="geometry">
            <mxRectangle width="36" height="22" as="alternateBounds" />
          </mxGeometry>
        </mxCell>
        <mxCell id="lWV6CRHEqDXHxuD6eHE_-191" value="int" style="shape=partialRectangle;connectable=0;fillColor=none;top=0;left=0;bottom=0;right=0;align=left;spacingLeft=2;overflow=hidden;fontSize=11;" parent="lWV6CRHEqDXHxuD6eHE_-190" vertex="1">
          <mxGeometry x="36" width="36" height="22" as="geometry">
            <mxRectangle width="36" height="22" as="alternateBounds" />
          </mxGeometry>
        </mxCell>
        <mxCell id="lWV6CRHEqDXHxuD6eHE_-192" value="award_id" style="shape=partialRectangle;connectable=0;fillColor=none;top=0;left=0;bottom=0;right=0;align=left;spacingLeft=2;overflow=hidden;fontSize=11;" parent="lWV6CRHEqDXHxuD6eHE_-190" vertex="1">
          <mxGeometry x="72" width="83" height="22" as="geometry">
            <mxRectangle width="83" height="22" as="alternateBounds" />
          </mxGeometry>
        </mxCell>
        <mxCell id="lWV6CRHEqDXHxuD6eHE_-193" style="shape=tableRow;horizontal=0;startSize=0;swimlaneHead=0;swimlaneBody=0;fillColor=none;collapsible=0;dropTarget=0;points=[[0,0.5],[1,0.5]];portConstraint=eastwest;top=0;left=0;right=0;bottom=0;" parent="lWV6CRHEqDXHxuD6eHE_-189" vertex="1">
          <mxGeometry y="47" width="155" height="22" as="geometry" />
        </mxCell>
        <mxCell id="8ehOqKbZKY1BmfsN4_bB-51" style="shape=partialRectangle;connectable=0;fillColor=none;top=0;left=0;bottom=0;right=0;align=left;spacingLeft=2;overflow=hidden;fontSize=11;" vertex="1" parent="lWV6CRHEqDXHxuD6eHE_-193">
          <mxGeometry width="36" height="22" as="geometry">
            <mxRectangle width="36" height="22" as="alternateBounds" />
          </mxGeometry>
        </mxCell>
        <mxCell id="lWV6CRHEqDXHxuD6eHE_-194" value="string" style="shape=partialRectangle;connectable=0;fillColor=none;top=0;left=0;bottom=0;right=0;align=left;spacingLeft=2;overflow=hidden;fontSize=11;" parent="lWV6CRHEqDXHxuD6eHE_-193" vertex="1">
          <mxGeometry x="36" width="36" height="22" as="geometry">
            <mxRectangle width="36" height="22" as="alternateBounds" />
          </mxGeometry>
        </mxCell>
        <mxCell id="lWV6CRHEqDXHxuD6eHE_-195" value="name" style="shape=partialRectangle;connectable=0;fillColor=none;top=0;left=0;bottom=0;right=0;align=left;spacingLeft=2;overflow=hidden;fontSize=11;" parent="lWV6CRHEqDXHxuD6eHE_-193" vertex="1">
          <mxGeometry x="72" width="83" height="22" as="geometry">
            <mxRectangle width="83" height="22" as="alternateBounds" />
          </mxGeometry>
        </mxCell>
        <mxCell id="lWV6CRHEqDXHxuD6eHE_-196" style="shape=tableRow;horizontal=0;startSize=0;swimlaneHead=0;swimlaneBody=0;fillColor=none;collapsible=0;dropTarget=0;points=[[0,0.5],[1,0.5]];portConstraint=eastwest;top=0;left=0;right=0;bottom=0;" parent="lWV6CRHEqDXHxuD6eHE_-189" vertex="1">
          <mxGeometry y="69" width="155" height="22" as="geometry" />
        </mxCell>
        <mxCell id="8ehOqKbZKY1BmfsN4_bB-52" style="shape=partialRectangle;connectable=0;fillColor=none;top=0;left=0;bottom=0;right=0;align=left;spacingLeft=2;overflow=hidden;fontSize=11;" vertex="1" parent="lWV6CRHEqDXHxuD6eHE_-196">
          <mxGeometry width="36" height="22" as="geometry">
            <mxRectangle width="36" height="22" as="alternateBounds" />
          </mxGeometry>
        </mxCell>
        <mxCell id="lWV6CRHEqDXHxuD6eHE_-197" value="string" style="shape=partialRectangle;connectable=0;fillColor=none;top=0;left=0;bottom=0;right=0;align=left;spacingLeft=2;overflow=hidden;fontSize=11;" parent="lWV6CRHEqDXHxuD6eHE_-196" vertex="1">
          <mxGeometry x="36" width="36" height="22" as="geometry">
            <mxRectangle width="36" height="22" as="alternateBounds" />
          </mxGeometry>
        </mxCell>
        <mxCell id="lWV6CRHEqDXHxuD6eHE_-198" value="description" style="shape=partialRectangle;connectable=0;fillColor=none;top=0;left=0;bottom=0;right=0;align=left;spacingLeft=2;overflow=hidden;fontSize=11;" parent="lWV6CRHEqDXHxuD6eHE_-196" vertex="1">
          <mxGeometry x="72" width="83" height="22" as="geometry">
            <mxRectangle width="83" height="22" as="alternateBounds" />
          </mxGeometry>
        </mxCell>
        <mxCell id="lWV6CRHEqDXHxuD6eHE_-199" style="shape=tableRow;horizontal=0;startSize=0;swimlaneHead=0;swimlaneBody=0;fillColor=none;collapsible=0;dropTarget=0;points=[[0,0.5],[1,0.5]];portConstraint=eastwest;top=0;left=0;right=0;bottom=0;" parent="lWV6CRHEqDXHxuD6eHE_-189" vertex="1">
          <mxGeometry y="91" width="155" height="22" as="geometry" />
        </mxCell>
        <mxCell id="8ehOqKbZKY1BmfsN4_bB-53" style="shape=partialRectangle;connectable=0;fillColor=none;top=0;left=0;bottom=0;right=0;align=left;spacingLeft=2;overflow=hidden;fontSize=11;" vertex="1" parent="lWV6CRHEqDXHxuD6eHE_-199">
          <mxGeometry width="36" height="22" as="geometry">
            <mxRectangle width="36" height="22" as="alternateBounds" />
          </mxGeometry>
        </mxCell>
        <mxCell id="lWV6CRHEqDXHxuD6eHE_-200" value="int" style="shape=partialRectangle;connectable=0;fillColor=none;top=0;left=0;bottom=0;right=0;align=left;spacingLeft=2;overflow=hidden;fontSize=11;" parent="lWV6CRHEqDXHxuD6eHE_-199" vertex="1">
          <mxGeometry x="36" width="36" height="22" as="geometry">
            <mxRectangle width="36" height="22" as="alternateBounds" />
          </mxGeometry>
        </mxCell>
        <mxCell id="lWV6CRHEqDXHxuD6eHE_-201" value="coin_price" style="shape=partialRectangle;connectable=0;fillColor=none;top=0;left=0;bottom=0;right=0;align=left;spacingLeft=2;overflow=hidden;fontSize=11;" parent="lWV6CRHEqDXHxuD6eHE_-199" vertex="1">
          <mxGeometry x="72" width="83" height="22" as="geometry">
            <mxRectangle width="83" height="22" as="alternateBounds" />
          </mxGeometry>
        </mxCell>
        <mxCell id="lWV6CRHEqDXHxuD6eHE_-202" value="DimTime" style="shape=table;startSize=25;container=1;collapsible=0;childLayout=tableLayout;fixedRows=1;rowLines=1;fontStyle=1;align=center;resizeLast=1;" parent="1" vertex="1">
          <mxGeometry x="549" y="20" width="155" height="157" as="geometry" />
        </mxCell>
        <mxCell id="lWV6CRHEqDXHxuD6eHE_-203" style="shape=tableRow;horizontal=0;startSize=0;swimlaneHead=0;swimlaneBody=0;fillColor=none;collapsible=0;dropTarget=0;points=[[0,0.5],[1,0.5]];portConstraint=eastwest;top=0;left=0;right=0;bottom=0;" parent="lWV6CRHEqDXHxuD6eHE_-202" vertex="1">
          <mxGeometry y="25" width="155" height="22" as="geometry" />
        </mxCell>
        <mxCell id="8ehOqKbZKY1BmfsN4_bB-29" value="pk" style="shape=partialRectangle;connectable=0;fillColor=none;top=0;left=0;bottom=0;right=0;align=left;spacingLeft=2;overflow=hidden;fontSize=11;" vertex="1" parent="lWV6CRHEqDXHxuD6eHE_-203">
          <mxGeometry width="36" height="22" as="geometry">
            <mxRectangle width="36" height="22" as="alternateBounds" />
          </mxGeometry>
        </mxCell>
        <mxCell id="lWV6CRHEqDXHxuD6eHE_-204" value="int" style="shape=partialRectangle;connectable=0;fillColor=none;top=0;left=0;bottom=0;right=0;align=left;spacingLeft=2;overflow=hidden;fontSize=11;" parent="lWV6CRHEqDXHxuD6eHE_-203" vertex="1">
          <mxGeometry x="36" width="36" height="22" as="geometry">
            <mxRectangle width="36" height="22" as="alternateBounds" />
          </mxGeometry>
        </mxCell>
        <mxCell id="lWV6CRHEqDXHxuD6eHE_-205" value="time_id" style="shape=partialRectangle;connectable=0;fillColor=none;top=0;left=0;bottom=0;right=0;align=left;spacingLeft=2;overflow=hidden;fontSize=11;" parent="lWV6CRHEqDXHxuD6eHE_-203" vertex="1">
          <mxGeometry x="72" width="83" height="22" as="geometry">
            <mxRectangle width="83" height="22" as="alternateBounds" />
          </mxGeometry>
        </mxCell>
        <mxCell id="lWV6CRHEqDXHxuD6eHE_-206" style="shape=tableRow;horizontal=0;startSize=0;swimlaneHead=0;swimlaneBody=0;fillColor=none;collapsible=0;dropTarget=0;points=[[0,0.5],[1,0.5]];portConstraint=eastwest;top=0;left=0;right=0;bottom=0;" parent="lWV6CRHEqDXHxuD6eHE_-202" vertex="1">
          <mxGeometry y="47" width="155" height="22" as="geometry" />
        </mxCell>
        <mxCell id="8ehOqKbZKY1BmfsN4_bB-30" style="shape=partialRectangle;connectable=0;fillColor=none;top=0;left=0;bottom=0;right=0;align=left;spacingLeft=2;overflow=hidden;fontSize=11;" vertex="1" parent="lWV6CRHEqDXHxuD6eHE_-206">
          <mxGeometry width="36" height="22" as="geometry">
            <mxRectangle width="36" height="22" as="alternateBounds" />
          </mxGeometry>
        </mxCell>
        <mxCell id="lWV6CRHEqDXHxuD6eHE_-207" value="date" style="shape=partialRectangle;connectable=0;fillColor=none;top=0;left=0;bottom=0;right=0;align=left;spacingLeft=2;overflow=hidden;fontSize=11;" parent="lWV6CRHEqDXHxuD6eHE_-206" vertex="1">
          <mxGeometry x="36" width="36" height="22" as="geometry">
            <mxRectangle width="36" height="22" as="alternateBounds" />
          </mxGeometry>
        </mxCell>
        <mxCell id="lWV6CRHEqDXHxuD6eHE_-208" value="date_value" style="shape=partialRectangle;connectable=0;fillColor=none;top=0;left=0;bottom=0;right=0;align=left;spacingLeft=2;overflow=hidden;fontSize=11;" parent="lWV6CRHEqDXHxuD6eHE_-206" vertex="1">
          <mxGeometry x="72" width="83" height="22" as="geometry">
            <mxRectangle width="83" height="22" as="alternateBounds" />
          </mxGeometry>
        </mxCell>
        <mxCell id="lWV6CRHEqDXHxuD6eHE_-209" style="shape=tableRow;horizontal=0;startSize=0;swimlaneHead=0;swimlaneBody=0;fillColor=none;collapsible=0;dropTarget=0;points=[[0,0.5],[1,0.5]];portConstraint=eastwest;top=0;left=0;right=0;bottom=0;" parent="lWV6CRHEqDXHxuD6eHE_-202" vertex="1">
          <mxGeometry y="69" width="155" height="22" as="geometry" />
        </mxCell>
        <mxCell id="8ehOqKbZKY1BmfsN4_bB-31" style="shape=partialRectangle;connectable=0;fillColor=none;top=0;left=0;bottom=0;right=0;align=left;spacingLeft=2;overflow=hidden;fontSize=11;" vertex="1" parent="lWV6CRHEqDXHxuD6eHE_-209">
          <mxGeometry width="36" height="22" as="geometry">
            <mxRectangle width="36" height="22" as="alternateBounds" />
          </mxGeometry>
        </mxCell>
        <mxCell id="lWV6CRHEqDXHxuD6eHE_-210" value="string" style="shape=partialRectangle;connectable=0;fillColor=none;top=0;left=0;bottom=0;right=0;align=left;spacingLeft=2;overflow=hidden;fontSize=11;" parent="lWV6CRHEqDXHxuD6eHE_-209" vertex="1">
          <mxGeometry x="36" width="36" height="22" as="geometry">
            <mxRectangle width="36" height="22" as="alternateBounds" />
          </mxGeometry>
        </mxCell>
        <mxCell id="lWV6CRHEqDXHxuD6eHE_-211" value="day" style="shape=partialRectangle;connectable=0;fillColor=none;top=0;left=0;bottom=0;right=0;align=left;spacingLeft=2;overflow=hidden;fontSize=11;" parent="lWV6CRHEqDXHxuD6eHE_-209" vertex="1">
          <mxGeometry x="72" width="83" height="22" as="geometry">
            <mxRectangle width="83" height="22" as="alternateBounds" />
          </mxGeometry>
        </mxCell>
        <mxCell id="lWV6CRHEqDXHxuD6eHE_-212" style="shape=tableRow;horizontal=0;startSize=0;swimlaneHead=0;swimlaneBody=0;fillColor=none;collapsible=0;dropTarget=0;points=[[0,0.5],[1,0.5]];portConstraint=eastwest;top=0;left=0;right=0;bottom=0;" parent="lWV6CRHEqDXHxuD6eHE_-202" vertex="1">
          <mxGeometry y="91" width="155" height="22" as="geometry" />
        </mxCell>
        <mxCell id="8ehOqKbZKY1BmfsN4_bB-32" style="shape=partialRectangle;connectable=0;fillColor=none;top=0;left=0;bottom=0;right=0;align=left;spacingLeft=2;overflow=hidden;fontSize=11;" vertex="1" parent="lWV6CRHEqDXHxuD6eHE_-212">
          <mxGeometry width="36" height="22" as="geometry">
            <mxRectangle width="36" height="22" as="alternateBounds" />
          </mxGeometry>
        </mxCell>
        <mxCell id="lWV6CRHEqDXHxuD6eHE_-213" value="string" style="shape=partialRectangle;connectable=0;fillColor=none;top=0;left=0;bottom=0;right=0;align=left;spacingLeft=2;overflow=hidden;fontSize=11;" parent="lWV6CRHEqDXHxuD6eHE_-212" vertex="1">
          <mxGeometry x="36" width="36" height="22" as="geometry">
            <mxRectangle width="36" height="22" as="alternateBounds" />
          </mxGeometry>
        </mxCell>
        <mxCell id="lWV6CRHEqDXHxuD6eHE_-214" value="month" style="shape=partialRectangle;connectable=0;fillColor=none;top=0;left=0;bottom=0;right=0;align=left;spacingLeft=2;overflow=hidden;fontSize=11;" parent="lWV6CRHEqDXHxuD6eHE_-212" vertex="1">
          <mxGeometry x="72" width="83" height="22" as="geometry">
            <mxRectangle width="83" height="22" as="alternateBounds" />
          </mxGeometry>
        </mxCell>
        <mxCell id="lWV6CRHEqDXHxuD6eHE_-215" style="shape=tableRow;horizontal=0;startSize=0;swimlaneHead=0;swimlaneBody=0;fillColor=none;collapsible=0;dropTarget=0;points=[[0,0.5],[1,0.5]];portConstraint=eastwest;top=0;left=0;right=0;bottom=0;" parent="lWV6CRHEqDXHxuD6eHE_-202" vertex="1">
          <mxGeometry y="113" width="155" height="22" as="geometry" />
        </mxCell>
        <mxCell id="8ehOqKbZKY1BmfsN4_bB-33" style="shape=partialRectangle;connectable=0;fillColor=none;top=0;left=0;bottom=0;right=0;align=left;spacingLeft=2;overflow=hidden;fontSize=11;" vertex="1" parent="lWV6CRHEqDXHxuD6eHE_-215">
          <mxGeometry width="36" height="22" as="geometry">
            <mxRectangle width="36" height="22" as="alternateBounds" />
          </mxGeometry>
        </mxCell>
        <mxCell id="lWV6CRHEqDXHxuD6eHE_-216" value="string" style="shape=partialRectangle;connectable=0;fillColor=none;top=0;left=0;bottom=0;right=0;align=left;spacingLeft=2;overflow=hidden;fontSize=11;" parent="lWV6CRHEqDXHxuD6eHE_-215" vertex="1">
          <mxGeometry x="36" width="36" height="22" as="geometry">
            <mxRectangle width="36" height="22" as="alternateBounds" />
          </mxGeometry>
        </mxCell>
        <mxCell id="lWV6CRHEqDXHxuD6eHE_-217" value="year" style="shape=partialRectangle;connectable=0;fillColor=none;top=0;left=0;bottom=0;right=0;align=left;spacingLeft=2;overflow=hidden;fontSize=11;" parent="lWV6CRHEqDXHxuD6eHE_-215" vertex="1">
          <mxGeometry x="72" width="83" height="22" as="geometry">
            <mxRectangle width="83" height="22" as="alternateBounds" />
          </mxGeometry>
        </mxCell>
        <mxCell id="lWV6CRHEqDXHxuD6eHE_-218" style="shape=tableRow;horizontal=0;startSize=0;swimlaneHead=0;swimlaneBody=0;fillColor=none;collapsible=0;dropTarget=0;points=[[0,0.5],[1,0.5]];portConstraint=eastwest;top=0;left=0;right=0;bottom=0;" parent="lWV6CRHEqDXHxuD6eHE_-202" vertex="1">
          <mxGeometry y="135" width="155" height="22" as="geometry" />
        </mxCell>
        <mxCell id="8ehOqKbZKY1BmfsN4_bB-34" style="shape=partialRectangle;connectable=0;fillColor=none;top=0;left=0;bottom=0;right=0;align=left;spacingLeft=2;overflow=hidden;fontSize=11;" vertex="1" parent="lWV6CRHEqDXHxuD6eHE_-218">
          <mxGeometry width="36" height="22" as="geometry">
            <mxRectangle width="36" height="22" as="alternateBounds" />
          </mxGeometry>
        </mxCell>
        <mxCell id="lWV6CRHEqDXHxuD6eHE_-219" value="string" style="shape=partialRectangle;connectable=0;fillColor=none;top=0;left=0;bottom=0;right=0;align=left;spacingLeft=2;overflow=hidden;fontSize=11;" parent="lWV6CRHEqDXHxuD6eHE_-218" vertex="1">
          <mxGeometry x="36" width="36" height="22" as="geometry">
            <mxRectangle width="36" height="22" as="alternateBounds" />
          </mxGeometry>
        </mxCell>
        <mxCell id="lWV6CRHEqDXHxuD6eHE_-220" value="quarter" style="shape=partialRectangle;connectable=0;fillColor=none;top=0;left=0;bottom=0;right=0;align=left;spacingLeft=2;overflow=hidden;fontSize=11;" parent="lWV6CRHEqDXHxuD6eHE_-218" vertex="1">
          <mxGeometry x="72" width="83" height="22" as="geometry">
            <mxRectangle width="83" height="22" as="alternateBounds" />
          </mxGeometry>
        </mxCell>
        <mxCell id="lWV6CRHEqDXHxuD6eHE_-221" value="DimPostTypes" style="shape=table;startSize=25;container=1;collapsible=0;childLayout=tableLayout;fixedRows=1;rowLines=1;fontStyle=1;align=center;resizeLast=1;" parent="1" vertex="1">
          <mxGeometry x="768" y="64" width="163" height="68" as="geometry" />
        </mxCell>
        <mxCell id="lWV6CRHEqDXHxuD6eHE_-222" style="shape=tableRow;horizontal=0;startSize=0;swimlaneHead=0;swimlaneBody=0;fillColor=none;collapsible=0;dropTarget=0;points=[[0,0.5],[1,0.5]];portConstraint=eastwest;top=0;left=0;right=0;bottom=0;" parent="lWV6CRHEqDXHxuD6eHE_-221" vertex="1">
          <mxGeometry y="25" width="163" height="21" as="geometry" />
        </mxCell>
        <mxCell id="8ehOqKbZKY1BmfsN4_bB-35" value="pk" style="shape=partialRectangle;connectable=0;fillColor=none;top=0;left=0;bottom=0;right=0;align=left;spacingLeft=2;overflow=hidden;fontSize=11;" vertex="1" parent="lWV6CRHEqDXHxuD6eHE_-222">
          <mxGeometry width="36" height="21" as="geometry">
            <mxRectangle width="36" height="21" as="alternateBounds" />
          </mxGeometry>
        </mxCell>
        <mxCell id="lWV6CRHEqDXHxuD6eHE_-223" value="int" style="shape=partialRectangle;connectable=0;fillColor=none;top=0;left=0;bottom=0;right=0;align=left;spacingLeft=2;overflow=hidden;fontSize=11;" parent="lWV6CRHEqDXHxuD6eHE_-222" vertex="1">
          <mxGeometry x="36" width="36" height="21" as="geometry">
            <mxRectangle width="36" height="21" as="alternateBounds" />
          </mxGeometry>
        </mxCell>
        <mxCell id="lWV6CRHEqDXHxuD6eHE_-224" value="post_type_id" style="shape=partialRectangle;connectable=0;fillColor=none;top=0;left=0;bottom=0;right=0;align=left;spacingLeft=2;overflow=hidden;fontSize=11;" parent="lWV6CRHEqDXHxuD6eHE_-222" vertex="1">
          <mxGeometry x="72" width="91" height="21" as="geometry">
            <mxRectangle width="91" height="21" as="alternateBounds" />
          </mxGeometry>
        </mxCell>
        <mxCell id="lWV6CRHEqDXHxuD6eHE_-225" style="shape=tableRow;horizontal=0;startSize=0;swimlaneHead=0;swimlaneBody=0;fillColor=none;collapsible=0;dropTarget=0;points=[[0,0.5],[1,0.5]];portConstraint=eastwest;top=0;left=0;right=0;bottom=0;" parent="lWV6CRHEqDXHxuD6eHE_-221" vertex="1">
          <mxGeometry y="46" width="163" height="21" as="geometry" />
        </mxCell>
        <mxCell id="8ehOqKbZKY1BmfsN4_bB-36" style="shape=partialRectangle;connectable=0;fillColor=none;top=0;left=0;bottom=0;right=0;align=left;spacingLeft=2;overflow=hidden;fontSize=11;" vertex="1" parent="lWV6CRHEqDXHxuD6eHE_-225">
          <mxGeometry width="36" height="21" as="geometry">
            <mxRectangle width="36" height="21" as="alternateBounds" />
          </mxGeometry>
        </mxCell>
        <mxCell id="lWV6CRHEqDXHxuD6eHE_-226" value="string" style="shape=partialRectangle;connectable=0;fillColor=none;top=0;left=0;bottom=0;right=0;align=left;spacingLeft=2;overflow=hidden;fontSize=11;" parent="lWV6CRHEqDXHxuD6eHE_-225" vertex="1">
          <mxGeometry x="36" width="36" height="21" as="geometry">
            <mxRectangle width="36" height="21" as="alternateBounds" />
          </mxGeometry>
        </mxCell>
        <mxCell id="lWV6CRHEqDXHxuD6eHE_-227" value="type_name" style="shape=partialRectangle;connectable=0;fillColor=none;top=0;left=0;bottom=0;right=0;align=left;spacingLeft=2;overflow=hidden;fontSize=11;" parent="lWV6CRHEqDXHxuD6eHE_-225" vertex="1">
          <mxGeometry x="72" width="91" height="21" as="geometry">
            <mxRectangle width="91" height="21" as="alternateBounds" />
          </mxGeometry>
        </mxCell>
        <mxCell id="lWV6CRHEqDXHxuD6eHE_-228" value="DimFlair" style="shape=table;startSize=25;container=1;collapsible=0;childLayout=tableLayout;fixedRows=1;rowLines=1;fontStyle=1;align=center;resizeLast=1;" parent="1" vertex="1">
          <mxGeometry x="996" y="53" width="154" height="91" as="geometry" />
        </mxCell>
        <mxCell id="lWV6CRHEqDXHxuD6eHE_-229" style="shape=tableRow;horizontal=0;startSize=0;swimlaneHead=0;swimlaneBody=0;fillColor=none;collapsible=0;dropTarget=0;points=[[0,0.5],[1,0.5]];portConstraint=eastwest;top=0;left=0;right=0;bottom=0;" parent="lWV6CRHEqDXHxuD6eHE_-228" vertex="1">
          <mxGeometry y="25" width="154" height="22" as="geometry" />
        </mxCell>
        <mxCell id="8ehOqKbZKY1BmfsN4_bB-37" value="pk" style="shape=partialRectangle;connectable=0;fillColor=none;top=0;left=0;bottom=0;right=0;align=left;spacingLeft=2;overflow=hidden;fontSize=11;" vertex="1" parent="lWV6CRHEqDXHxuD6eHE_-229">
          <mxGeometry width="36" height="22" as="geometry">
            <mxRectangle width="36" height="22" as="alternateBounds" />
          </mxGeometry>
        </mxCell>
        <mxCell id="lWV6CRHEqDXHxuD6eHE_-230" value="int" style="shape=partialRectangle;connectable=0;fillColor=none;top=0;left=0;bottom=0;right=0;align=left;spacingLeft=2;overflow=hidden;fontSize=11;" parent="lWV6CRHEqDXHxuD6eHE_-229" vertex="1">
          <mxGeometry x="36" width="36" height="22" as="geometry">
            <mxRectangle width="36" height="22" as="alternateBounds" />
          </mxGeometry>
        </mxCell>
        <mxCell id="lWV6CRHEqDXHxuD6eHE_-231" value="flair_id" style="shape=partialRectangle;connectable=0;fillColor=none;top=0;left=0;bottom=0;right=0;align=left;spacingLeft=2;overflow=hidden;fontSize=11;" parent="lWV6CRHEqDXHxuD6eHE_-229" vertex="1">
          <mxGeometry x="72" width="82" height="22" as="geometry">
            <mxRectangle width="82" height="22" as="alternateBounds" />
          </mxGeometry>
        </mxCell>
        <mxCell id="lWV6CRHEqDXHxuD6eHE_-232" style="shape=tableRow;horizontal=0;startSize=0;swimlaneHead=0;swimlaneBody=0;fillColor=none;collapsible=0;dropTarget=0;points=[[0,0.5],[1,0.5]];portConstraint=eastwest;top=0;left=0;right=0;bottom=0;" parent="lWV6CRHEqDXHxuD6eHE_-228" vertex="1">
          <mxGeometry y="47" width="154" height="22" as="geometry" />
        </mxCell>
        <mxCell id="8ehOqKbZKY1BmfsN4_bB-38" style="shape=partialRectangle;connectable=0;fillColor=none;top=0;left=0;bottom=0;right=0;align=left;spacingLeft=2;overflow=hidden;fontSize=11;" vertex="1" parent="lWV6CRHEqDXHxuD6eHE_-232">
          <mxGeometry width="36" height="22" as="geometry">
            <mxRectangle width="36" height="22" as="alternateBounds" />
          </mxGeometry>
        </mxCell>
        <mxCell id="lWV6CRHEqDXHxuD6eHE_-233" value="string" style="shape=partialRectangle;connectable=0;fillColor=none;top=0;left=0;bottom=0;right=0;align=left;spacingLeft=2;overflow=hidden;fontSize=11;" parent="lWV6CRHEqDXHxuD6eHE_-232" vertex="1">
          <mxGeometry x="36" width="36" height="22" as="geometry">
            <mxRectangle width="36" height="22" as="alternateBounds" />
          </mxGeometry>
        </mxCell>
        <mxCell id="lWV6CRHEqDXHxuD6eHE_-234" value="flair_name" style="shape=partialRectangle;connectable=0;fillColor=none;top=0;left=0;bottom=0;right=0;align=left;spacingLeft=2;overflow=hidden;fontSize=11;" parent="lWV6CRHEqDXHxuD6eHE_-232" vertex="1">
          <mxGeometry x="72" width="82" height="22" as="geometry">
            <mxRectangle width="82" height="22" as="alternateBounds" />
          </mxGeometry>
        </mxCell>
        <mxCell id="lWV6CRHEqDXHxuD6eHE_-235" style="shape=tableRow;horizontal=0;startSize=0;swimlaneHead=0;swimlaneBody=0;fillColor=none;collapsible=0;dropTarget=0;points=[[0,0.5],[1,0.5]];portConstraint=eastwest;top=0;left=0;right=0;bottom=0;" parent="lWV6CRHEqDXHxuD6eHE_-228" vertex="1">
          <mxGeometry y="69" width="154" height="22" as="geometry" />
        </mxCell>
        <mxCell id="8ehOqKbZKY1BmfsN4_bB-39" style="shape=partialRectangle;connectable=0;fillColor=none;top=0;left=0;bottom=0;right=0;align=left;spacingLeft=2;overflow=hidden;fontSize=11;" vertex="1" parent="lWV6CRHEqDXHxuD6eHE_-235">
          <mxGeometry width="36" height="22" as="geometry">
            <mxRectangle width="36" height="22" as="alternateBounds" />
          </mxGeometry>
        </mxCell>
        <mxCell id="lWV6CRHEqDXHxuD6eHE_-236" value="string" style="shape=partialRectangle;connectable=0;fillColor=none;top=0;left=0;bottom=0;right=0;align=left;spacingLeft=2;overflow=hidden;fontSize=11;" parent="lWV6CRHEqDXHxuD6eHE_-235" vertex="1">
          <mxGeometry x="36" width="36" height="22" as="geometry">
            <mxRectangle width="36" height="22" as="alternateBounds" />
          </mxGeometry>
        </mxCell>
        <mxCell id="lWV6CRHEqDXHxuD6eHE_-237" value="flair_color" style="shape=partialRectangle;connectable=0;fillColor=none;top=0;left=0;bottom=0;right=0;align=left;spacingLeft=2;overflow=hidden;fontSize=11;" parent="lWV6CRHEqDXHxuD6eHE_-235" vertex="1">
          <mxGeometry x="72" width="82" height="22" as="geometry">
            <mxRectangle width="82" height="22" as="alternateBounds" />
          </mxGeometry>
        </mxCell>
        <mxCell id="lWV6CRHEqDXHxuD6eHE_-238" value="user_id" style="curved=1;startArrow=ERmandOne;startSize=10;;endArrow=ERmany;endSize=10;;exitX=0;exitY=0.92;entryX=1;entryY=0.18;rounded=0;" parent="1" source="lWV6CRHEqDXHxuD6eHE_-103" target="lWV6CRHEqDXHxuD6eHE_-125" edge="1">
          <mxGeometry relative="1" as="geometry">
            <Array as="points">
              <mxPoint x="354" y="503" />
            </Array>
          </mxGeometry>
        </mxCell>
        <mxCell id="lWV6CRHEqDXHxuD6eHE_-239" value="subreddit_id" style="curved=1;startArrow=ERmandOne;startSize=10;;endArrow=ERmany;endSize=10;;exitX=0.61;exitY=1;entryX=0.5;entryY=0;rounded=0;" parent="1" source="lWV6CRHEqDXHxuD6eHE_-103" target="lWV6CRHEqDXHxuD6eHE_-144" edge="1">
          <mxGeometry relative="1" as="geometry">
            <Array as="points">
              <mxPoint x="527" y="503" />
            </Array>
          </mxGeometry>
        </mxCell>
        <mxCell id="lWV6CRHEqDXHxuD6eHE_-240" value="user_id" style="curved=1;startArrow=ERmandOne;startSize=10;;endArrow=ERmany;endSize=10;;exitX=0;exitY=0.68;entryX=0;entryY=0.11;rounded=0;" parent="1" source="lWV6CRHEqDXHxuD6eHE_-157" target="lWV6CRHEqDXHxuD6eHE_-125" edge="1">
          <mxGeometry relative="1" as="geometry">
            <Array as="points">
              <mxPoint x="20" y="226" />
              <mxPoint x="20" y="503" />
            </Array>
          </mxGeometry>
        </mxCell>
        <mxCell id="lWV6CRHEqDXHxuD6eHE_-241" value="post_id" style="curved=1;startArrow=ERmandOne;startSize=10;;endArrow=ERmany;endSize=10;;exitX=0.95;exitY=1;entryX=0.5;entryY=0;rounded=0;" parent="1" source="lWV6CRHEqDXHxuD6eHE_-157" target="lWV6CRHEqDXHxuD6eHE_-103" edge="1">
          <mxGeometry relative="1" as="geometry">
            <Array as="points">
              <mxPoint x="500" y="226" />
            </Array>
          </mxGeometry>
        </mxCell>
        <mxCell id="lWV6CRHEqDXHxuD6eHE_-242" value="sender_id" style="curved=1;startArrow=ERmandOne;startSize=10;;endArrow=ERmany;endSize=10;;exitX=0.33;exitY=0.99;entryX=0.43;entryY=0;rounded=0;" parent="1" source="lWV6CRHEqDXHxuD6eHE_-173" target="lWV6CRHEqDXHxuD6eHE_-125" edge="1">
          <mxGeometry relative="1" as="geometry">
            <Array as="points">
              <mxPoint x="154" y="503" />
            </Array>
          </mxGeometry>
        </mxCell>
        <mxCell id="lWV6CRHEqDXHxuD6eHE_-243" value="receiver_id" style="curved=1;startArrow=ERmandOne;startSize=10;;endArrow=ERmany;endSize=10;;exitX=0.68;exitY=0.99;entryX=0.86;entryY=0;rounded=0;" parent="1" source="lWV6CRHEqDXHxuD6eHE_-173" target="lWV6CRHEqDXHxuD6eHE_-125" edge="1">
          <mxGeometry relative="1" as="geometry">
            <Array as="points">
              <mxPoint x="254" y="503" />
            </Array>
          </mxGeometry>
        </mxCell>
        <mxCell id="lWV6CRHEqDXHxuD6eHE_-244" value="award_id" style="curved=1;startArrow=ERmandOne;startSize=10;;endArrow=ERmany;endSize=10;;exitX=1;exitY=0.82;entryX=0.26;entryY=0;rounded=0;" parent="1" source="lWV6CRHEqDXHxuD6eHE_-103" target="lWV6CRHEqDXHxuD6eHE_-189" edge="1">
          <mxGeometry relative="1" as="geometry">
            <Array as="points">
              <mxPoint x="693" y="503" />
            </Array>
          </mxGeometry>
        </mxCell>
        <mxCell id="lWV6CRHEqDXHxuD6eHE_-245" value="award_id" style="curved=1;startArrow=ERmandOne;startSize=10;;endArrow=ERmany;endSize=10;;exitX=1;exitY=0.65;entryX=0.69;entryY=0;rounded=0;" parent="1" source="lWV6CRHEqDXHxuD6eHE_-157" target="lWV6CRHEqDXHxuD6eHE_-189" edge="1">
          <mxGeometry relative="1" as="geometry">
            <Array as="points">
              <mxPoint x="810" y="226" />
              <mxPoint x="810" y="503" />
            </Array>
          </mxGeometry>
        </mxCell>
      </root>
    </mxGraphModel>
  </diagram>
</mxfile>
